inDegrees=no
num_controls=7
num_derivatives=13
num_iterations=146
num_multipliers=7
num_parameters=0
num_slacks=7
num_states=26
objective=0.313318
objective_accelerations=0.000000
objective_balance=0.003736
objective_effort=0.083789
objective_height=0.221681
objective_ligament=0.004112
solver_duration=1476.024685
status=Solve_Succeeded
success=true
DataType=double
version=3
OpenSimVersion=4.5
endheader
time	/jointset/ground_pelvis/pelvis_tilt/value	/jointset/ground_pelvis/pelvis_tx/value	/jointset/ground_pelvis/pelvis_ty/value	/jointset/hip_r/hip_flexion_r/value	/jointset/hip_r/hip_adduction_r/value	/jointset/hip_r/hip_rotation_r/value	/jointset/back/lumbar_extension/value	/jointset/patellofemoral_r/patellar_flexion_r/value	/jointset/knee_r/knee_flexion_r/value	/jointset/knee_r/knee_adduction_r/value	/jointset/knee_r/knee_rotation_r/value	/jointset/ankle_r/ankle_angle_r/value	/jointset/subtalar_r/subtalar_angle_r/value	/jointset/ground_pelvis/pelvis_tilt/speed	/jointset/ground_pelvis/pelvis_tx/speed	/jointset/ground_pelvis/pelvis_ty/speed	/jointset/hip_r/hip_flexion_r/speed	/jointset/hip_r/hip_adduction_r/speed	/jointset/hip_r/hip_rotation_r/speed	/jointset/back/lumbar_extension/speed	/jointset/patellofemoral_r/patellar_flexion_r/speed	/jointset/knee_r/knee_flexion_r/speed	/jointset/knee_r/knee_adduction_r/speed	/jointset/knee_r/knee_rotation_r/speed	/jointset/ankle_r/ankle_angle_r/speed	/jointset/subtalar_r/subtalar_angle_r/speed	/forceset/tau_hip_flexion_r	/forceset/tau_hip_adduction_r	/forceset/tau_hip_rotation_r	/forceset/tau_knee_flexion_r	/forceset/tau_ankle_angle_r	/forceset/tau_subtalar_angle_r	/forceset/tau_lumbar_extension	lambda_cid13_p0	lambda_cid14_p0	lambda_cid14_p1	lambda_cid14_p2	lambda_cid14_p3	lambda_cid14_p4	lambda_cid14_p5	/jointset/ground_pelvis/pelvis_tilt/accel	/jointset/ground_pelvis/pelvis_tx/accel	/jointset/ground_pelvis/pelvis_ty/accel	/jointset/hip_r/hip_flexion_r/accel	/jointset/hip_r/hip_adduction_r/accel	/jointset/hip_r/hip_rotation_r/accel	/jointset/back/lumbar_extension/accel	/jointset/patellofemoral_r/patellar_flexion_r/accel	/jointset/knee_r/knee_flexion_r/accel	/jointset/knee_r/knee_adduction_r/accel	/jointset/knee_r/knee_rotation_r/accel	/jointset/ankle_r/ankle_angle_r/accel	/jointset/subtalar_r/subtalar_angle_r/accel	gamma_cid13_p0	gamma_cid14_p0	gamma_cid14_p1	gamma_cid14_p2	gamma_cid14_p3	gamma_cid14_p4	gamma_cid14_p5
0.5	-0.2011316204516673	-0.02037672859443208	0.3720711366546806	2.180524177807525	-0.2379249472150123	0.04875925620202874	-0.4329339732251022	2.173300053053041	2.173300053053042	-0.1728815972775323	0.1667323233129581	0.4165226495345854	0.09094229346650094	0.2383727925205203	0.06399325206631114	-0.1023703328839403	0.03539199437898363	0.229588038838382	0.3009881318171146	-0.2801922651815033	0.3868096338801209	0.3868096338800985	-0.002575848658388772	-0.3682077401584297	0.1687888743178914	0.4352387433201002	-0.2623533779533733	-0.03447902036151874	-0.05024649550209407	-0.7417476032621152	0.1542220158024695	-0.008145745230192228	0.3269555756674723	-0.02511489549388511	-11.82133013294358	-8.90666812058941	5.648348028538085	23.04211070345021	-967.8770594860762	81.53640152131213	-14.80925965370296	-0.9751732042065689	2.672646996237997	1.339550208084041	8.436436310307492	2.890182071723816	17.40614234075263	-11.1543406071981	-11.15434060720734	-0.980502277087328	-14.89591372050235	3.086783626223763	15.27587045683578	-6.326010733508777e-07	2.191302109831099e-06	-6.074708897815295e-06	2.795000086133384e-06	-2.292955774937848e-06	-8.139537429484186e-07	-3.392777794703947e-05
0.51	-0.1994091840448158	-0.01978508553794072	0.3711788204043756	2.180908366457732	-0.2352825014772745	0.05199287377773319	-0.4349685699408504	2.176630178601839	2.176630178601839	-0.1728349513633399	0.1624916374328644	0.4183358310531757	0.09592468310690157	0.113385239713485	0.05436904526464074	-0.0764087714617033	0.03870376916276091	0.2913532233871783	0.3515006700771252	-0.136260175370724	0.281231609236638	0.2812316092366016	0.02206395929286908	-0.4620716231876574	0.1907564070222611	0.5475814473697098	-0.2409436142334949	-0.03422422228861096	-0.04768153980528075	-0.7081761351773532	0.1425078331143996	-0.01018629684552599	0.2989653874199312	-0.02603403253586867	-13.09412929654657	-10.85488869547688	6.917453374762544	28.19418073355453	-919.9241801627226	73.24052622105319	-10.2525855916348	-0.9517143285074834	2.510191346539578	-0.5839923726580557	3.915564523968528	6.994633325458206	11.45677769084734	-9.956989360544378	-9.956989360540616	5.712724566914767	-3.953889449374747	1.288874865062453	7.164068377222718	-1.14488982042244e-06	8.349117903021761e-07	-2.20058812938702e-06	2.67708511304503e-06	-2.285157271543659e-06	-1.169200221743985e-06	-2.551903591878335e-05
0.52	-0.1987184396655197	-0.01928881853153813	0.3705365758945577	2.181243476158541	-0.2322486028946881	0.05590418546050059	-0.4358498386805691	2.178965032710678	2.178965032710676	-0.1722366069224978	0.1578478599514289	0.4202761152533138	0.1016206193874381	0.03203438700920971	0.04491804204856002	-0.05235598478653995	0.02557620449923314	0.3078786078080885	0.4365269532298775	-0.04952666997567312	0.1877553458883149	0.1877553458883142	0.107763856671424	-0.4488260604265564	0.1942094106273861	0.5779480713472863	-0.2195338505136168	-0.03396942421570429	-0.04511658410846577	-0.6746046670925911	0.1307936504263295	-0.01222684846086208	0.2709751991723895	-0.02706952555348698	-14.39586006292599	-12.78897396962101	8.16238635739337	33.50364018814112	-871.8649274570225	65.14582138473237	-6.081919633150967	-0.9405324870886396	2.290892046823259	-1.948317681376967	-0.6115237152697104	9.79293105027218	5.966425457606946	-8.73398834816614	-8.733988348165441	11.23151560837207	6.525975437563369	-0.6161221936251742	-1.119345557570834	-2.205090385488618e-06	-4.70086885341108e-06	8.69148120948491e-06	-9.391583795460188e-07	3.998015125710357e-07	-8.438311751091592e-08	1.340240498207953e-05
0.53	-0.1986571601869501	-0.01888375122055894	0.3701212216276953	2.181406090523586	-0.2292910667306942	0.06067333740354679	-0.4360992793667888	2.180435525631688	2.180435525631685	-0.1706135815738798	0.1538280851104251	0.4221545738193911	0.1071815833440379	-0.01561307128904856	0.0363580687344263	-0.03139659796509191	0.007730443080484592	0.2751561259565383	0.5061383633946237	-0.005242194411916419	0.1093891277445533	0.1093891277445563	0.2125750976335667	-0.3431431991527207	0.1783909912010377	0.5188345364580738	-0.2026659490163066	-0.03596736527490683	-0.04433501986373872	-0.6404509943238746	0.1235995447848212	-0.01589071815381526	0.2505794667549432	-0.02798376301873977	-14.47221668341745	-15.34469708336629	9.656261137082714	32.92806300523692	-829.7978112034068	55.31906917803533	-3.482474795994814	-0.7739704489303677	1.896299676896554	-1.586278412957098	-5.875026236635399	3.870489604734229	2.927349534082201	-6.930502740178229	-6.930502740178198	9.465533196952403	14.38839962024077	-2.530265537255266	-10.61677520333261	-2.327593418860063e-06	-5.807157828313979e-06	9.704752699528063e-06	-1.518317880076817e-06	6.385418698928765e-07	8.477485194722768e-07	2.411330241203789e-05
0.54	-0.1989476184649288	-0.01855633178179202	0.3698950287644656	2.181413532666274	-0.226915238548523	0.06580365216927229	-0.4360522971116903	2.181213843532721	2.181213843532718	-0.1680705228442766	0.1512249305117493	0.423781735447182	0.1116895284019983	-0.03831316430056949	0.02938846760610546	-0.01452370405999976	-0.005458239971596089	0.1915370114434787	0.508759517765706	0.009757918284728058	0.04932034189290882	0.04932034189290873	0.2917705328683911	-0.1655020119610002	0.1439500229700651	0.3673442916194157	-0.1857980475189967	-0.03796530633410918	-0.04355345561901185	-0.6062973215551578	0.1164054391433129	-0.01955458784676758	0.2301837343374968	-0.02884464113710232	-14.55050572025995	-17.70937635528373	10.90107848803894	32.47915906294449	-787.677537592214	45.86255515191678	-1.092446575803496	-0.6224580499260677	1.473593463552082	-1.0169020080434	-10.79085024757158	-3.605120108460552	0.1095528841845462	-5.074501889742729	-5.074501889743376	6.108354462908399	20.91764062114032	-4.340631954550028	-19.59468754745988	-1.412643863973494e-06	-2.012732616447917e-06	-2.117096006224533e-07	1.262700653161213e-06	-1.82917220242847e-06	1.610951554391774e-06	3.61253472525048e-06
0.55	-0.1993769513985438	-0.01828915414109245	0.3698153297447678	2.181319821268511	-0.2255235805620459	0.07049868697032219	-0.4359496344400798	2.181493419050136	2.181493419050142	-0.1650564423237777	0.1504784008655325	0.4250163230129118	0.1144160002343677	-0.04679155363851557	0.02448201559072651	-0.002237867698509608	-0.0121014594735483	0.08868175715772328	0.4108862255440593	0.01080275516505867	0.01043398679687178	0.01043398679687013	0.2915613351997627	0.002685259886624347	0.1041686351137476	0.1818561225882057	-0.1770953188566672	-0.03691415691804738	-0.04399530212629255	-0.5774134537884982	0.1179363757799575	-0.01883077721866048	0.2214819537115879	-0.02833156661448156	-11.80000082204586	-16.62745351352978	10.40195508292444	21.98909253299933	-757.805929067792	45.01066945913104	-0.6115688549987046	-0.3601305584333227	0.9832189984477103	-0.3108861360215224	-9.748899710049155	-15.78221907222977	0.1061699593246149	-2.719635822478927	-2.719635822478756	-6.008731085881315	12.74284457344312	-3.616627588152547	-17.44052450386569	-1.982296722616456e-08	1.347790718890652e-06	-5.315884203683566e-06	2.508807567398003e-06	-2.464479300596042e-06	1.046573189663174e-06	-7.476514294010947e-06
